<svg width="25" height="25" viewBox="0 0 25 25" fill="none" xmlns="http://www.w3.org/2000/svg">
<rect x="0.5" y="0.5" width="24" height="24" stroke="#ACACAC" stroke-opacity="0.7"/>
<path d="M12.5 14.6875C11.3281 14.6875 10.3125 13.75 10.3125 12.5C10.3125 11.3281 11.25 10.3125 12.5 10.3125C13.6719 10.3125 14.6875 11.25 14.6875 12.5C14.6875 13.6719 13.6719 14.6875 12.5 14.6875Z" fill="black"/>
<path fill-rule="evenodd" clip-rule="evenodd" d="M15.1562 7.1875H9.84375C9.21875 7.26562 8.90625 7.34375 8.67188 7.42187C8.35938 7.5 8.125 7.65625 7.89063 7.89062C7.70517 8.07608 7.61754 8.26154 7.51163 8.48571C7.48372 8.54478 7.45446 8.60671 7.42188 8.67187C7.40979 8.70813 7.39583 8.74626 7.38088 8.78712C7.29915 9.01041 7.1875 9.31543 7.1875 9.84375V15.1562C7.26562 15.7812 7.34375 16.0937 7.42188 16.3281C7.5 16.6406 7.65625 16.875 7.89063 17.1094C8.07608 17.2948 8.26154 17.3825 8.48571 17.4884C8.54484 17.5163 8.60665 17.5455 8.67188 17.5781C8.70813 17.5902 8.74626 17.6042 8.78712 17.6191C9.01042 17.7009 9.31544 17.8125 9.84375 17.8125H15.1562C15.7812 17.7344 16.0938 17.6562 16.3281 17.5781C16.6406 17.5 16.875 17.3437 17.1094 17.1094C17.2948 16.9239 17.3825 16.7385 17.4884 16.5143C17.5163 16.4552 17.5455 16.3933 17.5781 16.3281C17.5902 16.2919 17.6042 16.2537 17.6191 16.2129C17.7009 15.9896 17.8125 15.6846 17.8125 15.1562V9.84375C17.7344 9.21875 17.6562 8.90625 17.5781 8.67187C17.5 8.35937 17.3438 8.125 17.1094 7.89062C16.9239 7.70516 16.7385 7.61754 16.5143 7.51163C16.4553 7.48374 16.3932 7.45443 16.3281 7.42187C16.2919 7.40979 16.2537 7.39583 16.2129 7.38087C15.9896 7.29914 15.6846 7.1875 15.1562 7.1875ZM12.5 9.14062C10.625 9.14062 9.14062 10.625 9.14062 12.5C9.14062 14.375 10.625 15.8594 12.5 15.8594C14.375 15.8594 15.8594 14.375 15.8594 12.5C15.8594 10.625 14.375 9.14062 12.5 9.14062ZM16.7188 9.0625C16.7188 9.49397 16.369 9.84375 15.9375 9.84375C15.506 9.84375 15.1562 9.49397 15.1562 9.0625C15.1562 8.63103 15.506 8.28125 15.9375 8.28125C16.369 8.28125 16.7188 8.63103 16.7188 9.0625Z" fill="black"/>
<path fill-rule="evenodd" clip-rule="evenodd" d="M0 0H25V25H0V0ZM9.84375 6.01562H15.1562C15.8594 6.09375 16.3281 6.17187 16.7188 6.32812C17.1875 6.5625 17.5 6.71875 17.8906 7.10937C18.2812 7.5 18.5156 7.89062 18.6719 8.28125C18.8281 8.67187 18.9844 9.14062 18.9844 9.84375V15.1562C18.9062 15.8594 18.8281 16.3281 18.6719 16.7187C18.4375 17.1875 18.2812 17.5 17.8906 17.8906C17.5 18.2812 17.1094 18.5156 16.7188 18.6719C16.3281 18.8281 15.8594 18.9844 15.1562 18.9844H9.84375C9.14063 18.9062 8.67188 18.8281 8.28125 18.6719C7.8125 18.4375 7.5 18.2812 7.10938 17.8906C6.71875 17.5 6.48438 17.1094 6.32813 16.7187C6.17188 16.3281 6.01562 15.8594 6.01562 15.1562V9.84375C6.09375 9.14062 6.17188 8.67187 6.32813 8.28125C6.5625 7.8125 6.71875 7.5 7.10938 7.10937C7.5 6.71875 7.89063 6.48437 8.28125 6.32812C8.67188 6.17187 9.14063 6.01562 9.84375 6.01562Z" fill="black"/>
</svg>
