<svg width="25" height="25" viewBox="0 0 25 25" fill="none" xmlns="http://www.w3.org/2000/svg">
<rect x="0.5" y="0.5" width="24" height="24" stroke="#ACACAC" stroke-opacity="0.7"/>
<path d="M14.5313 12.5L11.25 10.625V14.375L14.5313 12.5Z" fill="black"/>
<path fill-rule="evenodd" clip-rule="evenodd" d="M0 0H25V25H0V0ZM17.3438 8.35938C17.8906 8.51563 18.2813 8.90625 18.4375 9.45313C18.75 10.4688 18.75 12.5 18.75 12.5C18.75 12.5 18.75 14.5313 18.5156 15.5469C18.3594 16.0938 17.9687 16.4844 17.4219 16.6406C16.4062 16.875 12.5 16.875 12.5 16.875C12.5 16.875 8.51562 16.875 7.57812 16.6406C7.03125 16.4844 6.64063 16.0938 6.48438 15.5469C6.25 14.5313 6.25 12.5 6.25 12.5C6.25 12.5 6.25 10.4688 6.40625 9.45313C6.5625 8.90625 6.95313 8.51563 7.5 8.35938C8.51563 8.125 12.4219 8.125 12.4219 8.125C12.4219 8.125 16.4063 8.125 17.3438 8.35938Z" fill="black"/>
</svg>
