<svg width="102" height="26" viewBox="0 0 102 26" fill="none" xmlns="http://www.w3.org/2000/svg">
<path d="M7.28571 1L8.92146 5.99043H14.2148L9.9324 9.07469L11.5681 14.0651L7.28571 10.9809L3.00328 14.0651L4.63902 9.07469L0.356588 5.99043H5.64997L7.28571 1Z" fill="#0F3D3E"/>
<path d="M36.4288 1L38.0645 5.99043H43.3579L39.0755 9.07469L40.7112 14.0651L36.4288 10.9809L32.1463 14.0651L33.7821 9.07469L29.4997 5.99043H34.793L36.4288 1Z" fill="#0F3D3E"/>
<path d="M21.857 1L23.4927 5.99043H28.7861L24.5037 9.07469L26.1394 14.0651L21.857 10.9809L17.5746 14.0651L19.2103 9.07469L14.9279 5.99043H20.2213L21.857 1Z" fill="#0F3D3E"/>
<path d="M51.0001 1L52.6358 5.99043H57.9292L53.6468 9.07469L55.2825 14.0651L51.0001 10.9809L46.7176 14.0651L48.3534 9.07469L44.0709 5.99043H49.3643L51.0001 1Z" fill="#0F3D3E"/>
<path d="M65.5714 1L67.2071 5.99043H72.5005L68.218 9.07469L69.8538 14.0651L65.5714 10.9809L61.2889 14.0651L62.9247 9.07469L58.6422 5.99043H63.9356L65.5714 1Z" fill="#D9D9D9"/>
<path d="M65.5714 1L67.2071 5.99043H72.5005L68.218 9.07469L69.8538 14.0651L65.5714 10.9809L61.2889 14.0651L62.9247 9.07469L58.6422 5.99043H63.9356L65.5714 1Z" fill="url(#paint0_linear_33_273)"/>
<path d="M75.602 11.284V10.766L80.922 4.2H81.72L76.414 10.766L76.022 10.654H83.946V11.284H75.602ZM81.188 14V11.284L81.202 10.654V8.26H81.888V14H81.188ZM85.8336 14.056C85.6749 14.056 85.5349 14 85.4136 13.888C85.3016 13.7667 85.2456 13.622 85.2456 13.454C85.2456 13.286 85.3016 13.146 85.4136 13.034C85.5349 12.922 85.6749 12.866 85.8336 12.866C85.9923 12.866 86.1276 12.922 86.2396 13.034C86.3609 13.146 86.4216 13.286 86.4216 13.454C86.4216 13.622 86.3609 13.7667 86.2396 13.888C86.1276 14 85.9923 14.056 85.8336 14.056ZM89.5919 14L93.9039 4.536L94.1559 4.844H87.8979L88.2619 4.508V6.72H87.5619V4.2H94.5899V4.704L90.3759 14H89.5919Z" fill="#E0A800"/>
<defs>
<linearGradient id="paint0_linear_33_273" x1="58.2856" y1="8.27661" x2="72.8571" y2="8.16591" gradientUnits="userSpaceOnUse">
<stop offset="0.5" stop-color="#0F3D3E"/>
<stop offset="0.55" stop-color="#D9D9D9"/>
</linearGradient>
</defs>
</svg>
