<svg width="26" height="19" viewBox="0 0 26 19" fill="none" xmlns="http://www.w3.org/2000/svg">
<rect x="0.5" y="0.5" width="25" height="18" fill="#F2F2F2" stroke="#0F3D3E"/>
<path d="M12.991 14.078C12.315 14.078 11.665 13.9697 11.041 13.753C10.4257 13.5277 9.949 13.2417 9.611 12.895L9.988 12.154C10.3087 12.466 10.7377 12.7303 11.275 12.947C11.821 13.155 12.393 13.259 12.991 13.259C13.563 13.259 14.0267 13.1897 14.382 13.051C14.746 12.9037 15.0103 12.7087 15.175 12.466C15.3483 12.2233 15.435 11.9547 15.435 11.66C15.435 11.3047 15.331 11.0187 15.123 10.802C14.9237 10.5853 14.6593 10.4163 14.33 10.295C14.0007 10.165 13.6367 10.0523 13.238 9.957C12.8393 9.86167 12.4407 9.762 12.042 9.658C11.6433 9.54533 11.275 9.398 10.937 9.216C10.6077 9.034 10.339 8.79567 10.131 8.501C9.93167 8.19767 9.832 7.80333 9.832 7.318C9.832 6.86733 9.949 6.45567 10.183 6.083C10.4257 5.70167 10.794 5.39833 11.288 5.173C11.782 4.939 12.4147 4.822 13.186 4.822C13.6973 4.822 14.2043 4.89567 14.707 5.043C15.2097 5.18167 15.643 5.37667 16.007 5.628L15.682 6.395C15.292 6.135 14.876 5.94433 14.434 5.823C14.0007 5.70167 13.5803 5.641 13.173 5.641C12.627 5.641 12.1763 5.71467 11.821 5.862C11.4657 6.00933 11.2013 6.20867 11.028 6.46C10.8633 6.70267 10.781 6.98 10.781 7.292C10.781 7.64733 10.8807 7.93333 11.08 8.15C11.288 8.36667 11.5567 8.53567 11.886 8.657C12.224 8.77833 12.5923 8.88667 12.991 8.982C13.3897 9.07733 13.784 9.18133 14.174 9.294C14.5727 9.40667 14.9367 9.554 15.266 9.736C15.604 9.90933 15.8727 10.1433 16.072 10.438C16.28 10.7327 16.384 11.1183 16.384 11.595C16.384 12.037 16.2627 12.4487 16.02 12.83C15.7773 13.2027 15.4047 13.506 14.902 13.74C14.408 13.9653 13.771 14.078 12.991 14.078Z" fill="black"/>
</svg>
